<svg width="500" height="250" viewBox="0 0 500 250" fill="none" xmlns="http://www.w3.org/2000/svg">
<g clip-path="url(#clip0)">
<g filter="url(#filter0_d)">
<path d="M74.231 166.252V149.504L21.936 129.338L17.4072 127.8L21.936 126.347L74.231 105.839V89.0913L1.77002 121.391V133.867L74.231 166.252ZM128.064 193.681L179.932 58.5859H165.833L113.879 193.681H128.064ZM251.709 171.892C246.753 171.892 242.594 170.923 239.233 168.986C235.929 166.993 233.28 164.401 231.287 161.21C229.236 158.077 227.755 154.545 226.843 150.615C225.989 146.627 225.562 142.611 225.562 138.566V134.978C225.562 130.99 225.989 127.031 226.843 123.1C227.755 119.169 229.236 115.609 231.287 112.419C233.337 109.286 236.015 106.751 239.319 104.814C242.68 102.82 246.81 101.823 251.709 101.823C254.899 101.823 257.861 102.364 260.596 103.447C263.387 104.529 265.78 106.01 267.773 107.89C269.767 109.77 271.334 111.963 272.473 114.47C273.669 116.919 274.296 119.54 274.353 122.331H289.307C289.307 117.66 288.367 113.273 286.487 109.172C284.607 105.07 282.015 101.51 278.711 98.4907C275.35 95.5285 271.362 93.1929 266.748 91.4839C262.191 89.7179 257.178 88.835 251.709 88.835C244.702 88.835 238.578 90.0882 233.337 92.5947C228.097 95.1012 223.739 98.4622 220.264 102.678C216.732 106.95 214.083 111.878 212.317 117.46C210.551 123.043 209.668 128.882 209.668 134.978V138.566C209.668 144.719 210.551 150.586 212.317 156.169C214.083 161.695 216.732 166.565 220.264 170.781C223.739 175.053 228.097 178.443 233.337 180.949C238.578 183.456 244.702 184.709 251.709 184.709C256.608 184.709 261.308 183.883 265.808 182.231C270.308 180.522 274.296 178.243 277.771 175.395C281.246 172.604 284.009 169.357 286.06 165.654C288.167 161.894 289.25 157.963 289.307 153.862H274.353C274.296 156.425 273.612 158.818 272.302 161.04C271.049 163.204 269.368 165.084 267.261 166.679C265.153 168.331 262.732 169.613 259.998 170.524C257.32 171.436 254.557 171.892 251.709 171.892ZM333.228 104.301V51.75H317.419V183H333.228V115.837C334.367 114.014 335.649 112.362 337.073 110.881C338.554 109.343 340.149 108.004 341.858 106.865C344.023 105.384 346.387 104.244 348.95 103.447C351.514 102.649 354.22 102.25 357.068 102.25C360.543 102.194 363.619 102.678 366.296 103.703C368.974 104.672 371.195 106.153 372.961 108.146C374.613 109.969 375.867 112.277 376.721 115.068C377.576 117.802 378.003 120.992 378.003 124.638V183H393.811V124.809C393.811 118.6 393.042 113.245 391.504 108.745C390.023 104.187 387.887 100.428 385.095 97.4653C382.304 94.5031 378.914 92.3384 374.927 90.9712C370.996 89.547 366.61 88.835 361.768 88.835C358.065 88.8919 354.561 89.4331 351.257 90.4585C348.01 91.4839 345.02 92.9935 342.285 94.9873C340.576 96.1836 338.953 97.5793 337.415 99.1743C335.876 100.712 334.481 102.421 333.228 104.301ZM422.864 166.167L498.315 133.781V121.306L422.864 89.0059V105.327L478.149 125.834L483.276 127.458L478.149 128.911L422.864 149.76V166.167Z" fill="#00AF00"/>
</g>
</g>
<defs>
<filter id="filter0_d" x="-2.22998" y="51.75" width="504.545" height="149.931" filterUnits="userSpaceOnUse" color-interpolation-filters="sRGB">
<feFlood flood-opacity="0" result="BackgroundImageFix"/>
<feColorMatrix in="SourceAlpha" type="matrix" values="0 0 0 0 0 0 0 0 0 0 0 0 0 0 0 0 0 0 127 0"/>
<feOffset dy="4"/>
<feGaussianBlur stdDeviation="2"/>
<feColorMatrix type="matrix" values="0 0 0 0 0 0 0 0 0 0 0 0 0 0 0 0 0 0 0.25 0"/>
<feBlend mode="normal" in2="BackgroundImageFix" result="effect1_dropShadow"/>
<feBlend mode="normal" in="SourceGraphic" in2="effect1_dropShadow" result="shape"/>
</filter>
<clipPath id="clip0">
<rect width="500" height="250" fill="white"/>
</clipPath>
</defs>
</svg>
